<?xml version="1.0" standalone="no"?>
<!DOCTYPE svg PUBLIC "-//W3C//DTD SVG 20010904//EN"
 "http://www.w3.org/TR/2001/REC-SVG-20010904/DTD/svg10.dtd">
<svg version="1.0" xmlns="http://www.w3.org/2000/svg"
 width="1000.000000pt" height="1000.000000pt" viewBox="0 0 1000.000000 1000.000000"
 preserveAspectRatio="xMidYMid meet">
<metadata>
Created by potrace 1.14, written by Peter Selinger 2001-2017
</metadata>
<g transform="translate(0.000000,1000.000000) scale(0.100000,-0.100000)"
fill="#000000" stroke="none">
<path d="M2340 8973 l0 -312 315 1 c173 0 315 3 316 7 4 24 3 604 -1 610 -3 3
-146 6 -318 6 l-312 0 0 -312z"/>
<path d="M3362 9275 c-12 -17 -9 -605 3 -606 16 -2 67 3 150 16 78 11 114 16
159 20 27 3 65 8 85 10 20 2 61 7 91 10 30 3 73 7 95 10 41 4 117 12 208 20
28 2 95 7 147 11 52 3 113 7 135 9 309 25 1211 25 1450 0 22 -2 83 -7 135 -10
125 -7 196 -13 245 -20 22 -3 67 -8 100 -11 33 -2 78 -7 100 -10 22 -2 60 -7
85 -10 50 -5 181 -23 220 -29 14 -2 45 -7 70 -10 25 -3 86 -12 135 -21 50 -9
101 -17 115 -19 14 -2 54 -8 90 -15 36 -7 76 -14 90 -16 675 -120 1588 -375
2520 -704 96 -34 183 -64 193 -67 16 -5 17 12 17 253 l0 259 -77 23 c-43 13
-85 25 -93 27 -8 2 -53 15 -100 29 -137 39 -342 98 -359 101 -9 3 -41 11 -71
20 -30 9 -62 17 -70 19 -8 2 -42 11 -75 20 -33 9 -71 19 -85 22 -14 3 -34 8
-45 11 -11 4 -24 8 -30 9 -38 9 -216 55 -242 63 -18 5 -33 8 -33 6 0 -3 -11 0
-25 5 -14 5 -36 12 -48 14 -12 2 -53 12 -92 21 -38 9 -81 19 -95 21 -14 3 -50
11 -80 19 -30 8 -68 16 -85 19 -46 9 -74 15 -150 31 -179 38 -489 99 -610 120
-16 2 -41 7 -55 10 -14 3 -41 8 -60 11 -19 3 -61 10 -93 15 -32 6 -70 12 -85
14 -15 2 -88 13 -162 25 -184 29 -469 69 -690 95 -19 3 -55 7 -80 10 -25 3
-67 8 -95 11 -27 2 -61 6 -75 9 -14 2 -59 7 -100 10 -41 3 -86 8 -100 10 -14
2 -63 6 -110 10 -47 4 -96 8 -110 10 -14 2 -59 7 -100 10 -41 3 -100 7 -130 9
-30 3 -93 8 -140 11 -47 3 -101 7 -120 10 -19 2 -96 7 -170 11 -74 3 -157 7
-185 9 -43 4 -149 8 -440 20 -439 18 -1065 24 -1073 10z"/>
<path d="M1358 8383 c-5 -11 0 -7133 5 -7158 2 -11 7 -38 12 -60 4 -22 24 -76
46 -121 80 -169 251 -284 464 -312 40 -5 708 -9 1583 -9 l1512 -1 0 49 c0 63
0 3364 0 5759 l0 1859 -315 0 -315 0 0 -3522 0 -3522 -1180 0 c-649 0 -1181 2
-1181 5 -1 3 -3 1584 -4 3515 -1 1931 -3 3513 -4 3517 -1 9 -619 10 -623 1z"/>
<path d="M7000 8382 c-7 -3 -10 -345 -10 -1096 l0 -1092 -375 1 -375 0 -1 -35
c0 -42 0 -583 0 -591 1 -3 169 -5 374 -5 l372 1 3 -2423 2 -2422 315 0 315 0
0 2028 c-1 1115 -1 2205 0 2422 l0 395 375 -1 375 0 0 312 c0 289 -1 312 -17
316 -10 2 -179 3 -375 3 l-358 -1 0 1093 c0 867 -3 1093 -12 1094 -32 3 -598
4 -608 1z"/>
</g>
</svg>
