<?xml version="1.0" encoding="utf-8"?>
<!-- Generator: Adobe Illustrator 12.0.0, SVG Export Plug-In . SVG Version: 6.00 Build 51448)  -->
<!DOCTYPE svg PUBLIC "-//W3C//DTD SVG 1.1//EN" "http://www.w3.org/Graphics/SVG/1.1/DTD/svg11.dtd" [
	<!ENTITY ns_svg "http://www.w3.org/2000/svg">
	<!ENTITY ns_xlink "http://www.w3.org/1999/xlink">
]>
<svg  version="1.1" id="Form_2_Kopie_1_" xmlns="&ns_svg;" xmlns:xlink="&ns_xlink;" width="500" height="500"
	 viewBox="0 0 500 500" overflow="visible" enable-background="new 0 0 500 500" xml:space="preserve">
<g id="Form_2_Kopie">
	<g>
		<path fill="#FFFFFF" d="M321.505,84.063c31.214-37.223,24.083-76.145,24.083-76.145s-38.136-0.579-70.563,35.706
			c-31.87,35.661-26.135,75.268-26.135,75.268S287.849,124.199,321.505,84.063z M381.857,265.666
			c0-39.286,21.473-73.535,53.306-91.72c-0.372-0.554-0.737-1.13-1.117-1.658c-23.212-32.363-59.146-47.986-97.535-47.986
			c-38.389,0-60.91,22.635-83.899,22.635c-23.546,0-39.906-20.88-80.549-20.88c-54.504,0-94.185,40.574-109.685,84.202
			c-12.21,34.369-12.512,91.956,1.157,133.259c8.691,26.265,16.308,47.888,26.742,65.44c30.831,51.867,58.694,82.836,86.455,82.836
			c35.508,0,43.706-19.391,79.693-19.391c46.684,0,41.43,18.671,83.135,18.671c40.24,0,66.089-47.229,82.842-73.961
			c15.905-25.377,23.489-52.415,23.967-54.149C408.459,346.94,381.857,309.41,381.857,265.666z"/>
	</g>
</g>
</svg>
