<?xml version="1.0" encoding="UTF-8" standalone="no"?>
<!-- Generator: Adobe Illustrator 12.0.0, SVG Export Plug-In  -->

<svg
   xmlns:dc="http://purl.org/dc/elements/1.1/"
   xmlns:cc="http://creativecommons.org/ns#"
   xmlns:rdf="http://www.w3.org/1999/02/22-rdf-syntax-ns#"
   xmlns:svg="http://www.w3.org/2000/svg"
   xmlns="http://www.w3.org/2000/svg"
   xmlns:xlink="http://www.w3.org/1999/xlink"
   xmlns:sodipodi="http://sodipodi.sourceforge.net/DTD/sodipodi-0.dtd"
   xmlns:inkscape="http://www.inkscape.org/namespaces/inkscape"
   version="1.1"
   width="14"
   height="14"
   viewBox="-2.994 -1.623 14 14"
   enable-background="new -2.994 -1.623 14 14"
   xml:space="preserve"
   id="svg14"
   sodipodi:docname="html-icon.svg"
   inkscape:version="0.92.4 (5da689c313, 2019-01-14)"><metadata
   id="metadata18"><rdf:RDF><cc:Work
       rdf:about=""><dc:format>image/svg+xml</dc:format><dc:type
         rdf:resource="http://purl.org/dc/dcmitype/StillImage" /><dc:title /></cc:Work></rdf:RDF></metadata><sodipodi:namedview
   pagecolor="#ffffff"
   bordercolor="#666666"
   borderopacity="1"
   objecttolerance="10"
   gridtolerance="10"
   guidetolerance="10"
   inkscape:pageopacity="0"
   inkscape:pageshadow="2"
   inkscape:window-width="1920"
   inkscape:window-height="1018"
   id="namedview16"
   showgrid="false"
   inkscape:zoom="23.8396"
   inkscape:cx="0.97025451"
   inkscape:cy="9.4358345"
   inkscape:window-x="-8"
   inkscape:window-y="-8"
   inkscape:window-maximized="1"
   inkscape:current-layer="svg14" />
<defs
   id="defs2"><linearGradient
   inkscape:collect="always"
   id="linearGradient835"><stop
     style="stop-color:#e9eaf3;stop-opacity:1"
     offset="0"
     id="stop831" /><stop
     style="stop-color:#f2f3f5;stop-opacity:1"
     offset="1"
     id="stop833" /></linearGradient>
<filter
   style="color-interpolation-filters:sRGB;"
   inkscape:label="Drop Shadow"
   id="filter1066"><feFlood
     flood-opacity="0.90000000000000002"
     flood-color="rgb(0,0,0)"
     result="flood"
     id="feFlood1056" /><feComposite
     in="flood"
     in2="SourceGraphic"
     operator="in"
     result="composite1"
     id="feComposite1058" /><feGaussianBlur
     in="composite1"
     stdDeviation="0.2"
     result="blur"
     id="feGaussianBlur1060" /><feOffset
     dx="-0"
     dy="0.08125"
     result="offset"
     id="feOffset1062" /><feComposite
     in="SourceGraphic"
     in2="offset"
     operator="over"
     result="composite2"
     id="feComposite1064" /></filter><linearGradient
   inkscape:collect="always"
   xlink:href="#linearGradient835"
   id="linearGradient837"
   x1="4.3174405"
   y1="2.7075086"
   x2="4.3174405"
   y2="9.5592031"
   gradientUnits="userSpaceOnUse" /></defs>
<g
   id="Form_2_2_"
   style="filter:url(#filter1066)">
	<g
   id="g6"
   style="fill-opacity:1;fill:url(#linearGradient837)">
		<path
   d="M0.001,0v11.222H8.06V0H0.001z M1.606,0.735c-0.122,0-0.221-0.099-0.221-0.221s0.099-0.221,0.221-0.221    s0.221,0.099,0.221,0.221S1.728,0.735,1.606,0.735z M2.806,0.735c-0.122,0-0.221-0.099-0.221-0.221s0.099-0.221,0.221-0.221    s0.221,0.099,0.221,0.221S2.928,0.735,2.806,0.735z M4.006,0.735c-0.122,0-0.221-0.099-0.221-0.221s0.099-0.221,0.221-0.221    c0.123,0,0.221,0.099,0.221,0.221S4.128,0.735,4.006,0.735z M5.206,0.735c-0.122,0-0.221-0.099-0.221-0.221    s0.099-0.221,0.221-0.221s0.222,0.099,0.222,0.221S5.328,0.735,5.206,0.735z M6.406,0.735c-0.122,0-0.221-0.099-0.221-0.221    s0.099-0.221,0.221-0.221s0.222,0.099,0.222,0.221S6.528,0.735,6.406,0.735z"
   id="path4"
   style="fill-opacity:1;fill:url(#linearGradient837)"
   fill="#D8D8D8" />
	</g>
</g>

<text
   xml:space="preserve"
   style="font-style:normal;font-variant:normal;font-weight:normal;font-stretch:normal;font-size:24.93490791px;line-height:1.25;font-family:'Latin Modern Math';-inkscape-font-specification:'Latin Modern Math, Normal';font-variant-ligatures:normal;font-variant-caps:normal;font-variant-numeric:normal;text-align:start;letter-spacing:0px;word-spacing:0px;writing-mode:lr-tb;text-anchor:start;fill:#22280b;fill-opacity:1;stroke:none;stroke-width:1.0389545"
   x="0.45774692"
   y="5.9215136"
   id="text841"
   transform="scale(0.89555043,1.1166317)"><tspan
     sodipodi:role="line"
     id="tspan839"
     x="0.45774692"
     y="5.9215136"
     style="font-size:2.77054548px;fill:#22280b;stroke-width:1.0389545">HTML</tspan></text>

</svg>