<?xml version="1.0" encoding="utf-8"?>
<!-- Generator: Adobe Illustrator 12.0.0, SVG Export Plug-In  -->
<!DOCTYPE svg PUBLIC "-//W3C//DTD SVG 1.1//EN" "http://www.w3.org/Graphics/SVG/1.1/DTD/svg11.dtd" [
	<!ENTITY ns_flows "http://ns.adobe.com/Flows/1.0/">
	<!ENTITY ns_svg "http://www.w3.org/2000/svg">
	<!ENTITY ns_xlink "http://www.w3.org/1999/xlink">
]>
<svg  version="1.1" xmlns="&ns_svg;" xmlns:xlink="&ns_xlink;" xmlns:a="http://ns.adobe.com/AdobeSVGViewerExtensions/3.0/"
	 width="288" height="120" viewBox="-21.006 -18.632 288 120" enable-background="new -21.006 -18.632 288 120"
	 xml:space="preserve">
<defs>
</defs>
<g id="Rechtw._closed_x2C__enger_x2C__add_vertices_NE_round_4_">
	<g>
		<path d="M28.92,76.647H6.073V8.659H0c0,0,0,50.383,0,67.998c0,6.133,6.073,5.992,6.073,5.992h28.92c0,0,0-2.464,0-6.181
			c0-17.593,0-67.81,0-67.81H28.92V76.647z M67.124,38.261H49.637V8.691h-6.073c0,0,0,50.228,0,67.917
			c0,6.195,6.073,6.074,6.073,6.074h23.477c0,0,0-2.587,0-6.238V44.209C73.114,38.227,67.124,38.261,67.124,38.261z M67.042,76.68
			H49.637V44.263h17.404V76.68z M105.471,38.261l-17.465,0.003h-6.085c0,0,0,2.438,0,6.172v31.983c0,6.214,6.073,6.263,6.073,6.263
			h23.397V76.68H87.994V63.502h17.327v0.001h6.073c0,0,0-2.492,0-5.909V44.299C111.394,38.321,105.471,38.261,105.471,38.261z
			 M105.321,57.5H87.994V44.263h17.327V57.5z M143.185,38.263l-17.506-0.002l-5.958,0.003c0,0,0,2.343,0,5.953v32.396
			c0,3.676,0,6.069,0,6.069h6.073V44.263h17.327v6.991h6.073c0,0,0-3.619,0-7.037C149.194,38.479,143.185,38.263,143.185,38.263z
			 M201.681,38.264h-23.643c0,0,0,2.378,0,6.035v32.333c0,6.106,6.073,6.05,6.073,6.05h23.399c0,0,0-2.539,0-6.189V44.245
			C207.511,38.234,201.681,38.264,201.681,38.264z M201.438,76.68h-17.327V44.265h17.327V76.68z M239.151,38.261l-17.198,0.003
			h-6.115c0,0,0,2.284,0,5.816c0,12.044,0,38.602,0,38.602h6.073V44.263h17.327v38.419h6.072c0,0,0-26.285,0-38.465
			C245.311,38.096,239.151,38.261,239.151,38.261z M15.624,0H9.499v6.002h6.125V0z M245.105,2.4
			c-21.799,0-37.045,21.637-78.573,22.498V8.691h-6.073v16.219C98.687,24.024,89.564,0,19.294,0v6.002
			c57.225-8.286,79.504,25.601,141.165,26.622v5.638h-0.026v6.002h0.026v38.419h6.073V44.263h0.028v-6.002h-0.028v-5.678
			c35.454-1.328,53.463-24.182,78.573-24.182C246.399,8.402,246.141,2.4,245.105,2.4z"/>
	</g>
</g>
</svg>
