<?xml version="1.0" encoding="UTF-8" standalone="no"?>
<!-- Generator: Adobe Illustrator 12.0.0, SVG Export Plug-In  -->

<svg
   xmlns:dc="http://purl.org/dc/elements/1.1/"
   xmlns:cc="http://creativecommons.org/ns#"
   xmlns:rdf="http://www.w3.org/1999/02/22-rdf-syntax-ns#"
   xmlns:svg="http://www.w3.org/2000/svg"
   xmlns="http://www.w3.org/2000/svg"
   xmlns:xlink="http://www.w3.org/1999/xlink"
   xmlns:sodipodi="http://sodipodi.sourceforge.net/DTD/sodipodi-0.dtd"
   xmlns:inkscape="http://www.inkscape.org/namespaces/inkscape"
   version="1.1"
   width="14"
   height="14"
   viewBox="-2.571 -0.695 14 14"
   enable-background="new -2.571 -0.695 14 14"
   xml:space="preserve"
   id="svg14"
   sodipodi:docname="txt-icon-sml.svg"
   inkscape:version="0.92.4 (5da689c313, 2019-01-14)"><metadata
   id="metadata18"><rdf:RDF><cc:Work
       rdf:about=""><dc:format>image/svg+xml</dc:format><dc:type
         rdf:resource="http://purl.org/dc/dcmitype/StillImage" /></cc:Work></rdf:RDF></metadata><sodipodi:namedview
   pagecolor="#ffffff"
   bordercolor="#666666"
   borderopacity="1"
   objecttolerance="10"
   gridtolerance="10"
   guidetolerance="10"
   inkscape:pageopacity="0"
   inkscape:pageshadow="2"
   inkscape:window-width="1920"
   inkscape:window-height="1018"
   id="namedview16"
   showgrid="false"
   inkscape:zoom="47.6792"
   inkscape:cx="9.3790485"
   inkscape:cy="7.8748524"
   inkscape:window-x="-8"
   inkscape:window-y="-8"
   inkscape:window-maximized="1"
   inkscape:current-layer="Form_2_2_" />
<defs
   id="defs2"><linearGradient
   inkscape:collect="always"
   id="linearGradient843"><stop
     style="stop-color:#e9eaf3;stop-opacity:1"
     offset="0"
     id="stop839" /><stop
     style="stop-color:#f2f3f5;stop-opacity:1"
     offset="1"
     id="stop841" /></linearGradient>
<filter
   style="color-interpolation-filters:sRGB;"
   inkscape:label="Drop Shadow"
   id="filter958"><feFlood
     flood-opacity="0.866667"
     flood-color="rgb(0,0,0)"
     result="flood"
     id="feFlood948" /><feComposite
     in="flood"
     in2="SourceGraphic"
     operator="in"
     result="composite1"
     id="feComposite950" /><feGaussianBlur
     in="composite1"
     stdDeviation="0.3"
     result="blur"
     id="feGaussianBlur952" /><feOffset
     dx="0"
     dy="0.1"
     result="offset"
     id="feOffset954" /><feComposite
     in="SourceGraphic"
     in2="offset"
     operator="over"
     result="composite2"
     id="feComposite956" /></filter><linearGradient
   inkscape:collect="always"
   xlink:href="#linearGradient843"
   id="linearGradient845"
   x1="4.341516"
   y1="11.170221"
   x2="4.3118019"
   y2="2.2355075"
   gradientUnits="userSpaceOnUse" /></defs>
<g
   id="Form_2_2_"
   style="filter:url(#filter958)">
	<g
   id="g6"
   style="fill-opacity:1;fill:url(#linearGradient845)">
		<path
   fill="#D8D8D8"
   d="M0,0v12.399h8.905V0H0z M1.859,1.063c-0.204,0-0.369-0.165-0.369-0.369s0.166-0.369,0.369-0.369    c0.204,0,0.37,0.165,0.37,0.369S2.063,1.063,1.859,1.063z M3.659,1.063c-0.204,0-0.369-0.165-0.369-0.369s0.165-0.369,0.369-0.369    c0.204,0,0.369,0.165,0.369,0.369S3.863,1.063,3.659,1.063z M5.459,1.063c-0.204,0-0.369-0.165-0.369-0.369    s0.165-0.369,0.369-0.369s0.369,0.165,0.369,0.369S5.663,1.063,5.459,1.063z M7.259,1.063c-0.204,0-0.369-0.165-0.369-0.369    s0.165-0.369,0.369-0.369s0.369,0.165,0.369,0.369S7.463,1.063,7.259,1.063z"
   id="path4"
   style="fill-opacity:1;fill:url(#linearGradient845)" />
	</g>
</g>
<g
   id="Form_3_2_">
	<g
   id="g11">
		<path
   fill="#ADBBCC"
   d="M0,2.457v0.269h8.891V2.457H0z M0,4.715h8.891V4.446H0V4.715z M0,6.704h8.891V6.435H0V6.704z M0,8.692    h8.891V8.423H0V8.692z M0,10.681h8.891v-0.269H0V10.681z"
   id="path9" />
	</g>
</g>
</svg>