<?xml version="1.0" encoding="UTF-8" standalone="no"?>
<!-- Generator: Adobe Illustrator 21.1.0, SVG Export Plug-In . SVG Version: 6.00 Build 0)  -->

<svg
   xmlns:dc="http://purl.org/dc/elements/1.1/"
   xmlns:cc="http://creativecommons.org/ns#"
   xmlns:rdf="http://www.w3.org/1999/02/22-rdf-syntax-ns#"
   xmlns:svg="http://www.w3.org/2000/svg"
   xmlns="http://www.w3.org/2000/svg"
   xmlns:sodipodi="http://sodipodi.sourceforge.net/DTD/sodipodi-0.dtd"
   xmlns:inkscape="http://www.inkscape.org/namespaces/inkscape"
   version="1.1"
   id="Layer_1"
   x="0px"
   y="0px"
   viewBox="0 0 116.2 107.7"
   style="enable-background:new 0 0 116.2 107.7;"
   xml:space="preserve"
   sodipodi:docname="VST_Compatible_Logo_Steinberg_with_TM.svg"
   inkscape:version="0.92.4 (5da689c313, 2019-01-14)"><metadata
   id="metadata169"><rdf:RDF><cc:Work
       rdf:about=""><dc:format>image/svg+xml</dc:format><dc:type
         rdf:resource="http://purl.org/dc/dcmitype/StillImage" /></cc:Work></rdf:RDF></metadata><defs
   id="defs167" /><sodipodi:namedview
   pagecolor="#ffffff"
   bordercolor="#666666"
   borderopacity="1"
   objecttolerance="10"
   gridtolerance="10"
   guidetolerance="10"
   inkscape:pageopacity="0"
   inkscape:pageshadow="2"
   inkscape:window-width="1920"
   inkscape:window-height="1018"
   id="namedview165"
   showgrid="false"
   inkscape:snap-page="true"
   inkscape:zoom="6.1978535"
   inkscape:cx="50.218283"
   inkscape:cy="33.65816"
   inkscape:window-x="-8"
   inkscape:window-y="-8"
   inkscape:window-maximized="1"
   inkscape:current-layer="Layer_1" />
<style
   type="text/css"
   id="style2">
	.st0{fill-rule:evenodd;clip-rule:evenodd;}
	.st1{fill-rule:evenodd;clip-rule:evenodd;fill:none;stroke:#000000;stroke-width:0.8877;stroke-miterlimit:10;}
	.st2{fill:#FFFFFF;}
	.st3{fill-rule:evenodd;clip-rule:evenodd;fill:#FFFFFF;}
</style>
<rect
   style="fill:#ffffff;fill-opacity:1;fill-rule:nonzero;stroke:none;stroke-width:3.77952766;stroke-linejoin:round;stroke-miterlimit:4;stroke-dasharray:none;stroke-dashoffset:0;stroke-opacity:1"
   id="rect976"
   width="116.2"
   height="34.300663"
   x="1.4695192e-14"
   y="73.39933" /><rect
   x="1.4695192e-14"
   y="1.7017597e-14"
   class="st0"
   width="116.2"
   height="73.39933"
   id="rect4"
   style="clip-rule:evenodd;fill-rule:evenodd;stroke-width:1.02548683" />
<g
   id="g8"
   transform="matrix(1.0301418,0,0,1.020853,-2.1632977,-1.3271088)">
	<rect
   x="2.0999999"
   y="1.3"
   class="st1"
   width="112.8"
   height="105.5"
   id="rect6"
   style="clip-rule:evenodd;fill:none;fill-rule:evenodd;stroke:#000000;stroke-width:0.88770002;stroke-miterlimit:10" />
</g>
<g
   id="g30"
   transform="matrix(1.0301418,0,0,1.020853,-2.1632977,-1.3271088)">
	<path
   class="st2"
   d="m 20.9,58.6 c -0.4,0.9 -1.6,3.3 -4.7,3.3 -2.6,0 -5.1,-1.7 -5.1,-5.8 0,-2.4 1.4,-5.6 5.1,-5.6 2.8,0 3.9,1.8 4.4,3.3 l -2,0.5 c -0.1,-1.2 -1.1,-2 -2.3,-2 -1.8,0 -3,1.3 -3,3.8 0,1.5 0.6,3.8 3,3.8 1.4,0 2.3,-1.1 2.6,-2.2 z"
   id="path10"
   inkscape:connector-curvature="0"
   style="fill:#ffffff" />
	<path
   class="st2"
   d="m 27.4,50.5 c 3.3,0 5.2,2.7 5.2,5.6 0,2.5 -1.3,5.8 -5.2,5.8 -3.2,0 -5.2,-2.6 -5.2,-5.7 0,-3.2 2,-5.7 5.2,-5.7 z m 0,9.5 c 1.6,0 3.1,-1.2 3.1,-3.7 0,-1.9 -1,-3.9 -3.2,-3.9 -1.8,0 -3.1,1.4 -3.1,3.8 0,1.6 0.9,3.8 3.2,3.8 z"
   id="path12"
   inkscape:connector-curvature="0"
   style="fill:#ffffff" />
	<path
   class="st2"
   d="m 42.5,61.6 c 0,-0.3 0.2,-8.9 0.2,-8.9 l -2.3,8.9 h -1.8 l -2.3,-8.9 c 0,0 0.2,8.5 0.2,8.9 h -2 V 50.8 h 2.9 l 2.1,8 2.1,-8 h 2.9 v 10.8 z"
   id="path14"
   inkscape:connector-curvature="0"
   style="fill:#ffffff" />
	<path
   class="st2"
   d="m 51.8,50.8 c 2.2,0 3.8,1.4 3.8,3.6 0,2 -1.1,3.5 -4,3.5 h -2.1 v 3.7 h -2 V 50.8 Z m -2.2,5.5 h 1.8 c 1.4,0 2.2,-0.7 2.2,-1.9 0,-1.7 -1.4,-1.8 -2.4,-1.8 h -1.5 v 3.7 z"
   id="path16"
   inkscape:connector-curvature="0"
   style="fill:#ffffff" />
	<path
   class="st2"
   d="m 63.2,61.6 -0.6,-2.1 h -4.1 l -0.6,2.1 h -2.2 l 3.7,-10.8 h 2.3 l 3.7,10.8 z m -2.7,-8.9 -1.5,5 h 3 z"
   id="path18"
   inkscape:connector-curvature="0"
   style="fill:#ffffff" />
	<path
   class="st2"
   d="m 69.5,52.6 v 9 h -2 v -9 h -2.9 v -1.8 h 8 v 1.8 z"
   id="path20"
   inkscape:connector-curvature="0"
   style="fill:#ffffff" />
	<path
   class="st2"
   d="M 74.1,61.6 V 50.8 h 2 v 10.8 z"
   id="path22"
   inkscape:connector-curvature="0"
   style="fill:#ffffff" />
	<path
   class="st2"
   d="m 84,50.8 c 2.3,0 3.3,1.3 3.3,2.7 0,0.9 -0.5,2.1 -1.8,2.2 1,0.2 2.3,1 2.3,2.9 0,1.5 -0.9,3.1 -3.6,3.1 h -5 V 50.8 Z m -2.8,4.3 h 2 c 0.9,0 2,-0.3 2,-1.4 0,-1.1 -1.1,-1.3 -1.9,-1.3 h -2.1 z m 0,4.8 h 2.7 c 1.4,0 1.9,-0.7 1.9,-1.5 0,-1.5 -1.5,-1.7 -2.3,-1.7 h -2.3 z"
   id="path24"
   inkscape:connector-curvature="0"
   style="fill:#ffffff" />
	<path
   class="st2"
   d="M 90.4,61.6 V 50.8 h 2 v 9 h 4.3 v 1.8 z"
   id="path26"
   inkscape:connector-curvature="0"
   style="fill:#ffffff" />
	<path
   class="st2"
   d="M 98,61.6 V 50.8 h 7.7 v 1.8 H 100 v 2.5 h 5.2 v 1.7 H 100 v 2.9 h 6.1 v 1.8 H 98 Z"
   id="path28"
   inkscape:connector-curvature="0"
   style="fill:#ffffff" />
</g>
<path
   class="st3"
   d="m 69.843614,18.171184 h 37.291136 l 0.10301,6.533458 h -1.75124 c -0.61809,-2.245876 -2.26631,-3.777155 -5.04769,-4.491753 -1.545217,-0.408341 -3.914543,-0.714597 -7.004968,-0.714597 V 35.83194 c 0,1.122938 0.412057,1.633365 1.133155,1.939621 0.824114,0.408341 2.47234,0.408341 4.944681,0.408341 v 1.327109 h -21.94202 v -1.429194 c 2.369326,0 4.017553,-0.204171 4.841667,-0.510426 0.824112,-0.408342 1.236169,-0.714598 1.236169,-1.837536 V 19.396207 c -2.987411,0 -5.356737,0.306256 -6.90195,0.714597 -2.987411,0.816683 -4.635638,2.347962 -5.047694,4.491753 -0.515072,0 -1.751241,0 -1.751241,0 z"
   id="path32"
   inkscape:connector-curvature="0"
   style="clip-rule:evenodd;fill:#ffffff;fill-rule:evenodd;stroke-width:1.02548683" />
<g
   id="g38"
   transform="matrix(1.0301418,0,0,1.020853,-2.1632977,-1.3271088)">
	<path
   class="st3"
   d="m 41.5,29.9 3.3,0.4 0.1,0.1 c 1.3,2.7 3.4,4.8 6.3,6 2.9,1.3 6.3,1.9 10.1,1.9 3.7,0 6.3,-0.4 7.8,-1.3 1.5,-0.8 2.2,-1.7 2.2,-2.6 0,-1 -0.8,-1.9 -2.3,-2.5 -1.1,-0.5 -3.3,-1.1 -6.5,-1.8 L 57,28.9 c -5.2,-1.2 -9,-2.4 -11.1,-3.6 -2.2,-1.2 -3.3,-2.8 -3.3,-4.6 0,-1.9 1.5,-3.7 4.4,-5.4 2.9,-1.6 7.3,-2.4 13.2,-2.4 3,0 5.9,0.2 8.7,0.6 1.8,0.3 4.3,0.6 4.8,0.6 1.1,0 1.5,-0.2 1.7,-0.3 0.3,-0.2 0.6,-0.5 0.8,-0.9 l 0.1,-0.1 h 2.8 v 8.7 h -2.6 l -0.1,-0.1 c -1.1,-1.8 -3,-3.5 -5.7,-4.8 -2.7,-1.4 -6,-2 -9.8,-2 -2.7,0 -4.9,0.3 -6.4,1 -1.7,0.7 -2.5,1.5 -2.5,2.4 0,1.1 0.7,1.9 2.1,2.5 1.5,0.6 4.8,1.5 9.8,2.6 l 6.1,1.4 c 2.7,0.6 4.9,1.3 6.5,2.1 3.1,1.5 4.7,3.3 4.7,5.4 0,2 -1.7,3.9 -5,5.6 -3.2,1.7 -8.5,2.6 -15.6,2.6 -1.6,0 -3.3,-0.1 -5,-0.2 -1.7,-0.1 -3.4,-0.4 -5,-0.6 L 49.1,39 c -0.4,0 -0.7,-0.1 -1,-0.1 -0.3,0 -0.6,-0.1 -0.9,-0.1 -0.8,0 -1.3,0.1 -1.6,0.3 -0.3,0.2 -0.5,0.5 -0.8,0.9 l -0.1,0.1 h -3.2 z"
   id="path34"
   inkscape:connector-curvature="0"
   style="clip-rule:evenodd;fill:#ffffff;fill-rule:evenodd" />
	<path
   d="m 78.7,13.2 v 8.2 h -2.3 c -1.1,-1.9 -3,-3.5 -5.7,-4.9 -2.7,-1.4 -6,-2.1 -9.9,-2.1 -2.8,0 -4.9,0.3 -6.5,1 -1.6,0.7 -2.4,1.5 -2.4,2.5 0,1.2 0.8,2.1 2.3,2.7 1.5,0.6 4.8,1.5 9.9,2.6 l 6.1,1.4 c 2.7,0.6 4.9,1.3 6.5,2.1 3,1.4 4.5,3.2 4.5,5.2 0,1.9 -1.6,3.7 -4.9,5.4 -3.2,1.7 -8.4,2.5 -15.5,2.5 -1.6,0 -3.3,-0.1 -5,-0.2 -1.7,-0.1 -3.3,-0.3 -5,-0.6 l -1.6,-0.3 c -0.4,0 -0.7,-0.1 -1.1,-0.1 -0.3,0 -0.6,-0.1 -0.9,-0.1 -0.8,0 -1.4,0.1 -1.7,0.3 -0.3,0.2 -0.6,0.5 -0.8,1 h -2.9 v -9.7 l 2.9,0.4 c 1.3,2.8 3.4,4.9 6.4,6.1 3,1.3 6.3,1.9 10.1,1.9 3.7,0 6.3,-0.4 7.9,-1.3 1.6,-0.9 2.3,-1.8 2.3,-2.8 0,-1.1 -0.8,-2 -2.5,-2.8 -1.1,-0.5 -3.3,-1.1 -6.5,-1.8 L 57.1,28.6 C 51.9,27.4 48.2,26.2 46,25 43.9,23.8 42.8,22.4 42.8,20.6 42.8,18.8 44.2,17 47,15.4 49.9,13.8 54.2,13 60.1,13 c 3,0 5.9,0.2 8.6,0.6 2.8,0.4 4.4,0.6 4.8,0.6 0.9,0 1.5,-0.1 1.9,-0.3 0.3,-0.2 0.6,-0.6 0.8,-1 h 2.5 m 0.4,-0.2 H 78.6 76.2 76 L 75.8,13 c -0.2,0.3 -0.4,0.6 -0.7,0.8 -0.1,0.1 -0.5,0.2 -1.5,0.2 -0.5,0 -3.7,-0.5 -4.7,-0.6 -2.8,-0.4 -5.7,-0.6 -8.7,-0.6 -5.9,0 -10.4,0.8 -13.3,2.5 -3,1.7 -4.5,3.5 -4.5,5.6 0,1.9 1.2,3.5 3.5,4.8 2.1,1 5.8,2.3 11.1,3.5 l 5.3,1.2 c 3.2,0.7 5.4,1.3 6.5,1.8 1.4,0.6 2.2,1.4 2.2,2.3 0,0.8 -0.7,1.6 -2.1,2.4 -1.5,0.8 -4.1,1.2 -7.7,1.2 -3.7,0 -7.1,-0.6 -10,-1.9 C 48.3,35 46.3,33 45,30.4 l -0.1,-0.2 h -0.3 l -2.9,-0.4 -0.5,-0.1 v 0.5 9.7 0.5 h 0.5 2.9 0.3 L 45,40.2 c 0.2,-0.4 0.4,-0.6 0.7,-0.8 0.1,-0.1 0.5,-0.3 1.5,-0.3 0.2,0 0.5,0 0.8,0.1 0.3,0 0.7,0.1 1.1,0.1 l 1.6,0.3 c 1.6,0.3 3.3,0.5 5,0.6 1.7,0.1 3.4,0.2 5,0.2 7.2,0 12.5,-0.9 15.8,-2.6 3.4,-1.8 5.1,-3.7 5.1,-5.8 0,-2.2 -1.6,-4.1 -4.8,-5.6 -1.6,-0.8 -3.9,-1.5 -6.6,-2.1 L 64,22.8 c -5,-1.1 -8.3,-2 -9.8,-2.6 -1.3,-0.5 -2,-1.3 -2,-2.2 0,-0.8 0.7,-1.5 2.1,-2.1 1.5,-0.7 3.7,-1 6.4,-1 3.8,0 7.1,0.7 9.7,2 2.7,1.3 4.5,2.9 5.6,4.7 l 0.1,0.2 h 0.3 2.3 0.5 v -0.5 -8.2 -0.4 z"
   id="path36"
   inkscape:connector-curvature="0" />
</g>
<g
   id="g46"
   transform="matrix(1.0301418,0,0,1.020853,-2.1632977,-1.3271088)">
	<g
   id="g44">
		<path
   class="st3"
   d="M 28.9,40.7 13.8,23 C 13.2,22.3 12.6,21.8 12,21.5 11.4,21.2 9.6,21 8.2,21 H 8 V 19.6 H 29 V 21 h -0.2 c -2.1,0.1 -3.5,0.2 -4.1,0.3 -0.7,0.1 -0.7,0.4 -0.7,0.6 0,0.1 0,0.3 0,0.4 0,0.1 0.1,0.2 0.2,0.3 L 33,33.4 h 0.1 l 7.6,-9.9 c 0.2,-0.2 0.3,-0.4 0.4,-0.6 0.3,-0.4 0.3,-0.7 0.3,-0.8 0,-0.3 -0.1,-0.7 -0.8,-0.8 -0.6,-0.1 -2,-0.2 -4,-0.3 h -0.2 v -1.5 h 13.8 v 1.4 H 50 c -1.5,0.1 -3.4,0.3 -4,0.6 -0.7,0.3 -1.3,0.9 -2,1.7 L 30.7,40.7 Z"
   id="path40"
   inkscape:connector-curvature="0"
   style="clip-rule:evenodd;fill:#ffffff;fill-rule:evenodd" />
		<path
   d="m 50.1,19.7 v 1 c -1.4,0.1 -3.4,0.3 -4.1,0.6 -0.7,0.3 -1.4,0.9 -2.1,1.8 L 30.6,40.4 H 29 L 13.9,22.8 C 13.3,22.1 12.7,21.6 12,21.3 11.4,21 9.5,20.8 8.1,20.7 v -1 h 20.5 v 1 c -2.1,0.1 -3.5,0.2 -4.1,0.3 -0.6,0.1 -0.9,0.4 -0.9,0.9 0,0.1 0,0.3 0.1,0.4 0.1,0.1 0.2,0.3 0.3,0.4 l 9,10.9 h 0.3 L 41,23.7 c 0.2,-0.2 0.3,-0.4 0.5,-0.7 0.2,-0.4 0.3,-0.7 0.3,-0.9 0,-0.6 -0.3,-0.9 -1,-1 -0.6,-0.1 -2,-0.3 -4,-0.3 v -1 h 13.3 m 0.5,-0.5 H 50.1 36.8 36.3 v 0.5 1 0.5 h 0.5 c 2,0.1 3.3,0.2 3.9,0.3 0.6,0.1 0.6,0.4 0.6,0.6 0,0.1 0,0.3 -0.3,0.7 -0.1,0.2 -0.3,0.4 -0.4,0.6 l -7.5,9.7 -8.7,-10.6 c -0.1,-0.1 -0.2,-0.2 -0.2,-0.3 0,-0.1 0,-0.2 0,-0.3 0,-0.1 0,-0.3 0.5,-0.4 0.6,-0.1 1.9,-0.2 4,-0.3 h 0.5 v -0.5 -1 -0.5 H 28.7 8.2 7.7 v 0.5 1 0.4 h 0.4 c 1.7,0.1 3.2,0.3 3.7,0.5 0.6,0.3 1.2,0.8 1.7,1.4 l 15.1,17.6 0.1,0.2 h 0.3 1.6 0.2 l 0.1,-0.2 13.4,-17.3 c 0.6,-0.8 1.3,-1.3 1.9,-1.6 0.5,-0.3 2.1,-0.5 3.9,-0.6 h 0.4 v -0.4 -1 -0.5 z"
   id="path42"
   inkscape:connector-curvature="0" />
	</g>
</g>
<g
   id="g162"
   transform="matrix(1.0301418,0,0,1.020853,-2.1632977,-1.3271088)">
	<path
   d="M 14.7,87.2 H 14.2 L 13,79.9 h 0.5 l 1,6.3 1.1,-6.3 H 16 Z"
   id="path48"
   inkscape:connector-curvature="0" />
	<path
   d="m 17.4,84.8 v 0.6 c 0,0.6 0,0.9 0.2,1.1 0.2,0.3 0.6,0.4 0.9,0.4 0.7,0 0.9,-0.5 0.9,-1.2 0,-0.8 -0.2,-1.1 -1.1,-2 -0.8,-0.8 -1.3,-1.3 -1.3,-2.3 0,-0.6 0.1,-1.6 1.4,-1.6 1.3,0 1.4,1 1.4,1.7 V 82 h -0.5 v -0.7 c 0,-0.4 0,-1.1 -0.9,-1.1 -0.6,0 -0.9,0.4 -0.9,1.1 0,0.7 0.1,1 1.2,2.1 0.8,0.8 1.1,1.2 1.1,2.1 0,0.7 -0.1,1.7 -1.5,1.7 -0.9,0 -1.5,-0.4 -1.5,-1.5 v -1 h 0.6 z"
   id="path50"
   inkscape:connector-curvature="0" />
	<path
   d="m 22.3,80.3 v 6.9 h -0.5 v -6.9 h -1.3 v -0.5 h 3.1 v 0.5 z"
   id="path52"
   inkscape:connector-curvature="0" />
	<path
   d="m 26.4,81.3 v -0.8 h 0.4 v 0.8 z m 0,5.9 V 82 h 0.4 v 5.2 z"
   id="path54"
   inkscape:connector-curvature="0" />
	<path
   d="m 28.2,85.3 v 0.5 c 0,0.3 0,1 0.8,1 0.4,0 0.8,-0.2 0.8,-0.9 0,-0.5 -0.1,-0.7 -0.9,-1.3 C 28.3,84.1 28,83.8 28,83 c 0,-0.4 0.1,-1.1 1.1,-1.1 1.1,0 1.1,0.8 1.1,1.2 v 0.4 h -0.4 v -0.4 c 0,-0.6 -0.2,-0.8 -0.6,-0.8 -0.6,0 -0.7,0.4 -0.7,0.7 0,0.5 0,0.6 1,1.4 0.5,0.4 0.8,0.7 0.8,1.4 0,0.8 -0.3,1.3 -1.2,1.3 -1.1,0 -1.2,-0.6 -1.2,-1.5 v -0.4 h 0.3 z"
   id="path56"
   inkscape:connector-curvature="0" />
	<path
   d="m 35.7,87.2 c -0.4,0 -0.6,-0.1 -0.7,-0.4 -0.2,0.1 -0.5,0.4 -1,0.4 -0.7,0 -1,-0.6 -1,-1.2 0,-1.5 1.4,-1.6 2,-2.2 v -0.7 c 0,-0.4 -0.1,-0.7 -0.6,-0.7 -0.5,0 -0.7,0.3 -0.7,1 v 0.3 h -0.4 v -0.3 c 0,-1 0.4,-1.4 1.2,-1.4 0.7,0 1.1,0.4 1.1,1.1 v 3.6 c 0,0.2 0.1,0.2 0.3,0.2 z M 35,84.3 c -0.3,0.2 -0.6,0.3 -0.9,0.5 -0.5,0.3 -0.7,0.6 -0.7,1.2 0,0.2 0,0.8 0.7,0.8 0.4,0 0.7,-0.2 0.9,-0.5 z"
   id="path58"
   inkscape:connector-curvature="0" />
	<path
   d="m 39.1,82 v 0.9 c 0.2,-0.6 0.7,-0.9 1.1,-1.1 v 0.6 c -0.1,0 -0.3,0.1 -0.4,0.2 -0.4,0.2 -0.6,0.8 -0.7,0.9 v 3.7 H 38.7 V 82 Z"
   id="path60"
   inkscape:connector-curvature="0" />
	<path
   d="m 43.2,86 c 0,0.6 -0.3,1.2 -1.2,1.2 -0.7,0 -1.2,-0.4 -1.2,-1.2 v -2.8 c 0,-0.6 0.3,-1.2 1.2,-1.2 0.8,0 1.2,0.4 1.2,1.4 v 1.3 h -2 V 86 c 0,0.3 0.1,0.9 0.7,0.9 0.7,0 0.8,-0.6 0.8,-1.1 v -0.4 h 0.4 V 86 Z m -0.5,-2.8 c 0,-0.6 -0.3,-0.9 -0.7,-0.9 -0.5,0 -0.8,0.4 -0.8,0.9 v 1 h 1.5 z"
   id="path62"
   inkscape:connector-curvature="0" />
	<path
   d="m 46.6,87.6 c 0,0.9 -0.6,1.3 -1.3,1.3 -0.4,0 -0.9,-0.1 -1,-0.5 -0.1,-0.1 -0.1,-0.3 -0.1,-0.6 h 0.4 c 0,0 0,0.2 0.1,0.4 0.2,0.3 0.6,0.3 0.6,0.3 0.1,0 0.8,-0.1 0.8,-0.8 v -0.9 c -0.1,0.1 -0.4,0.5 -0.9,0.5 -0.7,0 -1,-0.6 -1,-1.2 v -2.9 c 0,-0.9 0.5,-1.2 1.1,-1.2 0.5,0 0.8,0.3 0.9,0.5 V 82 h 0.4 z M 46.2,83 c -0.1,-0.4 -0.4,-0.7 -0.8,-0.7 -0.6,0 -0.7,0.5 -0.7,0.9 v 2.6 c 0,0.7 0.3,0.9 0.7,0.9 0.3,0 0.7,-0.2 0.8,-0.8 z"
   id="path64"
   inkscape:connector-curvature="0" />
	<path
   d="m 47.8,81.3 v -0.8 h 0.4 v 0.8 z m 0,5.9 V 82 h 0.4 v 5.2 z"
   id="path66"
   inkscape:connector-curvature="0" />
	<path
   d="m 49.6,85.3 v 0.5 c 0,0.3 0,1 0.8,1 0.4,0 0.8,-0.2 0.8,-0.9 0,-0.5 -0.1,-0.7 -0.9,-1.3 -0.6,-0.5 -0.9,-0.8 -0.9,-1.6 0,-0.4 0.1,-1.1 1.1,-1.1 1.1,0 1.1,0.8 1.1,1.2 v 0.4 h -0.4 v -0.4 c 0,-0.6 -0.2,-0.8 -0.6,-0.8 -0.6,0 -0.7,0.4 -0.7,0.7 0,0.5 0,0.6 1,1.4 0.5,0.4 0.8,0.7 0.8,1.4 0,0.8 -0.3,1.3 -1.2,1.3 -1.1,0 -1.2,-0.6 -1.2,-1.5 v -0.4 h 0.3 z"
   id="path68"
   inkscape:connector-curvature="0" />
	<path
   d="m 52.1,82 h 0.6 v -1.4 h 0.4 V 82 h 0.8 v 0.4 h -0.8 v 4.1 c 0,0.3 0.3,0.3 0.4,0.3 0.1,0 0.3,0 0.4,0 v 0.4 c -0.2,0 -0.3,0 -0.5,0 -0.6,0 -0.8,-0.2 -0.8,-0.6 V 82.4 H 52 V 82 Z"
   id="path70"
   inkscape:connector-curvature="0" />
	<path
   d="m 56.9,86 c 0,0.6 -0.3,1.2 -1.2,1.2 -0.7,0 -1.2,-0.4 -1.2,-1.2 v -2.8 c 0,-0.6 0.3,-1.2 1.2,-1.2 0.8,0 1.2,0.4 1.2,1.4 v 1.3 h -2 V 86 c 0,0.3 0.1,0.9 0.7,0.9 0.7,0 0.8,-0.6 0.8,-1.1 v -0.4 h 0.4 V 86 Z m -0.4,-2.8 c 0,-0.6 -0.3,-0.9 -0.7,-0.9 -0.5,0 -0.8,0.4 -0.8,0.9 v 1 h 1.5 z"
   id="path72"
   inkscape:connector-curvature="0" />
	<path
   d="m 58.4,82 v 0.9 c 0.2,-0.6 0.7,-0.9 1.1,-1.1 v 0.6 c -0.1,0 -0.3,0.1 -0.4,0.2 -0.4,0.2 -0.6,0.8 -0.7,0.9 v 3.7 H 58 V 82 Z"
   id="path74"
   inkscape:connector-curvature="0" />
	<path
   d="m 62.6,86 c 0,0.6 -0.3,1.2 -1.2,1.2 -0.7,0 -1.2,-0.4 -1.2,-1.2 v -2.8 c 0,-0.6 0.3,-1.2 1.2,-1.2 0.8,0 1.2,0.4 1.2,1.4 v 1.3 h -2 V 86 c 0,0.3 0.1,0.9 0.7,0.9 0.7,0 0.8,-0.6 0.8,-1.1 v -0.4 h 0.4 V 86 Z m -0.5,-2.8 c 0,-0.6 -0.3,-0.9 -0.7,-0.9 -0.5,0 -0.8,0.4 -0.8,0.9 v 1 h 1.5 z"
   id="path76"
   inkscape:connector-curvature="0" />
	<path
   d="m 65.6,87.2 v -0.6 c -0.1,0.2 -0.4,0.6 -1,0.6 -0.5,0 -1,-0.3 -1,-1.2 v -2.8 c 0,-0.9 0.5,-1.3 1.1,-1.3 0.6,0 0.8,0.4 0.9,0.5 V 79.8 H 66 v 7.3 h -0.4 z m 0,-3.9 c -0.1,-0.5 -0.3,-0.9 -0.8,-0.9 -0.5,0 -0.7,0.4 -0.7,0.8 v 2.7 c 0,0.3 0.1,0.9 0.7,0.9 0.4,0 0.7,-0.4 0.8,-0.8 z"
   id="path78"
   inkscape:connector-curvature="0" />
	<path
   d="m 68.8,82 h 0.6 v -1.4 h 0.4 V 82 h 0.8 v 0.4 h -0.8 v 4.1 c 0,0.3 0.3,0.3 0.4,0.3 0.1,0 0.3,0 0.4,0 v 0.4 c -0.2,0 -0.3,0 -0.5,0 -0.6,0 -0.8,-0.2 -0.8,-0.6 V 82.4 H 68.7 V 82 Z"
   id="path80"
   inkscape:connector-curvature="0" />
	<path
   d="m 71.7,82 v 0.9 c 0.2,-0.6 0.7,-0.9 1.1,-1.1 v 0.6 c -0.1,0 -0.3,0.1 -0.4,0.2 -0.4,0.2 -0.6,0.8 -0.7,0.9 v 3.7 H 71.3 V 82 Z"
   id="path82"
   inkscape:connector-curvature="0" />
	<path
   d="m 76,87.2 c -0.4,0 -0.6,-0.1 -0.7,-0.4 -0.2,0.1 -0.5,0.4 -1,0.4 -0.7,0 -1,-0.6 -1,-1.2 0,-1.5 1.4,-1.6 2,-2.2 v -0.7 c 0,-0.4 -0.1,-0.7 -0.6,-0.7 -0.5,0 -0.7,0.3 -0.7,1 v 0.3 h -0.4 v -0.3 c 0,-1 0.4,-1.4 1.2,-1.4 0.8,0 1.1,0.4 1.1,1.1 v 3.6 c 0,0.2 0.1,0.2 0.3,0.2 z m -0.7,-2.9 c -0.3,0.2 -0.6,0.3 -0.9,0.5 -0.5,0.3 -0.7,0.6 -0.7,1.2 0,0.2 0,0.8 0.7,0.8 0.4,0 0.7,-0.2 0.9,-0.5 z"
   id="path84"
   inkscape:connector-curvature="0" />
	<path
   d="m 78.9,87.2 v -0.6 c -0.1,0.2 -0.4,0.6 -1,0.6 -0.5,0 -1,-0.3 -1,-1.2 v -2.8 c 0,-0.9 0.5,-1.3 1.1,-1.3 0.6,0 0.8,0.4 0.9,0.5 v -2.6 h 0.4 v 7.3 h -0.4 z m -0.1,-3.9 c -0.1,-0.5 -0.3,-0.9 -0.8,-0.9 -0.5,0 -0.7,0.4 -0.7,0.8 v 2.7 c 0,0.3 0.1,0.9 0.7,0.9 0.4,0 0.8,-0.4 0.8,-0.8 z"
   id="path86"
   inkscape:connector-curvature="0" />
	<path
   d="m 82.8,86 c 0,0.6 -0.3,1.2 -1.2,1.2 -0.7,0 -1.2,-0.4 -1.2,-1.2 v -2.8 c 0,-0.6 0.3,-1.2 1.2,-1.2 0.8,0 1.2,0.4 1.2,1.4 v 1.3 h -2 V 86 c 0,0.3 0.1,0.9 0.7,0.9 0.7,0 0.8,-0.6 0.8,-1.1 v -0.4 h 0.4 V 86 Z m -0.5,-2.8 c 0,-0.6 -0.3,-0.9 -0.7,-0.9 -0.5,0 -0.8,0.4 -0.8,0.9 v 1 h 1.5 z"
   id="path88"
   inkscape:connector-curvature="0" />
	<path
   d="m 87.8,87.2 v -4 c 0,-0.5 -0.1,-0.9 -0.7,-0.9 -0.4,0 -0.7,0.3 -0.9,0.6 v 4.2 H 85.8 V 83 c 0,-0.5 -0.2,-0.7 -0.7,-0.7 -0.5,0 -0.8,0.4 -0.8,0.6 v 4.3 H 83.9 V 82 h 0.4 v 0.4 c 0.1,-0.2 0.5,-0.5 1,-0.5 0.6,0 0.8,0.4 0.9,0.6 0.1,-0.2 0.4,-0.6 1.1,-0.6 0.5,0 1,0.3 1,1.2 v 4.2 h -0.5 z"
   id="path90"
   inkscape:connector-curvature="0" />
	<path
   d="m 91.8,87.2 c -0.4,0 -0.6,-0.1 -0.7,-0.4 -0.2,0.1 -0.5,0.4 -1,0.4 -0.7,0 -1,-0.6 -1,-1.2 0,-1.5 1.4,-1.6 2,-2.2 v -0.7 c 0,-0.4 -0.1,-0.7 -0.6,-0.7 -0.5,0 -0.7,0.3 -0.7,1 v 0.3 h -0.4 v -0.3 c 0,-1 0.4,-1.4 1.2,-1.4 0.7,0 1.1,0.4 1.1,1.1 v 3.6 c 0,0.2 0.1,0.2 0.3,0.2 z m -0.6,-2.9 c -0.3,0.2 -0.6,0.3 -0.9,0.5 -0.5,0.3 -0.7,0.6 -0.7,1.2 0,0.2 0,0.8 0.7,0.8 0.4,0 0.7,-0.2 0.9,-0.5 z"
   id="path92"
   inkscape:connector-curvature="0" />
	<path
   d="m 93.2,82 v 0.9 c 0.2,-0.6 0.7,-0.9 1.1,-1.1 v 0.6 c -0.1,0 -0.3,0.1 -0.4,0.2 -0.4,0.2 -0.6,0.8 -0.7,0.9 v 3.7 H 92.8 V 82 Z"
   id="path94"
   inkscape:connector-curvature="0" />
	<path
   d="M 97.1,87.2 96,84.4 95.5,85.2 v 1.9 H 95 v -7.3 h 0.4 v 4.6 l 1.5,-2.5 h 0.5 l -1.2,2 1.3,3.2 h -0.4 z"
   id="path96"
   inkscape:connector-curvature="0" />
	<path
   d="m 102.7,85.8 c 0,1 -0.6,1.4 -1.2,1.4 -0.7,0 -1.2,-0.4 -1.2,-1.1 v -2.9 c 0,-0.6 0.3,-1.3 1.3,-1.3 0.8,0 1.2,0.5 1.2,1.3 v 2.6 z m -0.4,-2.5 c 0,-0.4 -0.1,-0.9 -0.7,-0.9 -0.7,0 -0.8,0.5 -0.8,1 V 86 c 0,0.6 0.3,0.8 0.8,0.8 0.7,0 0.8,-0.6 0.8,-0.9 v -2.6 z"
   id="path98"
   inkscape:connector-curvature="0" />
	<path
   d="m 103.4,82 h 0.6 v -1.3 c 0,-0.4 0.2,-0.8 0.9,-0.8 0.1,0 0.2,0 0.3,0 v 0.4 c 0,0 -0.1,0 -0.2,0 -0.3,0 -0.6,0.1 -0.6,0.6 V 82 h 0.6 v 0.4 h -0.7 v 4.8 H 104 v -4.8 h -0.6 z"
   id="path100"
   inkscape:connector-curvature="0" />
	<path
   d="m 7.5,96.8 v 0.6 c 0,0.6 0,0.9 0.2,1.1 0.2,0.3 0.6,0.4 0.9,0.4 0.7,0 0.9,-0.5 0.9,-1.2 0,-0.8 -0.2,-1.1 -1.1,-2 -0.8,-0.8 -1.3,-1.3 -1.3,-2.3 0,-0.6 0.1,-1.6 1.4,-1.6 1.3,0 1.4,1 1.4,1.7 V 94 H 9.4 v -0.7 c 0,-0.4 0,-1.1 -0.9,-1.1 -0.6,0 -0.9,0.4 -0.9,1.1 0,0.7 0.1,1 1.2,2.1 0.8,0.8 1.1,1.2 1.1,2.1 0,0.7 -0.1,1.7 -1.5,1.7 -0.9,0 -1.5,-0.4 -1.5,-1.5 v -1 h 0.6 z"
   id="path102"
   inkscape:connector-curvature="0" />
	<path
   d="M 10.5,94 H 11 v -1.4 h 0.4 V 94 h 0.8 v 0.4 h -0.8 v 4.1 c 0,0.3 0.3,0.3 0.4,0.3 0.1,0 0.3,0 0.4,0 v 0.4 c -0.2,0 -0.3,0 -0.5,0 -0.6,0 -0.8,-0.2 -0.8,-0.6 V 94.4 H 10.3 V 94 Z"
   id="path104"
   inkscape:connector-curvature="0" />
	<path
   d="m 15.3,98.1 c 0,0.6 -0.3,1.2 -1.2,1.2 -0.7,0 -1.2,-0.4 -1.2,-1.2 v -2.8 c 0,-0.6 0.3,-1.2 1.2,-1.2 0.8,0 1.2,0.4 1.2,1.4 v 1.3 h -2 V 98 c 0,0.3 0.1,0.9 0.7,0.9 0.7,0 0.8,-0.6 0.8,-1.1 v -0.4 h 0.4 v 0.7 z m -0.5,-2.9 c 0,-0.6 -0.3,-0.9 -0.7,-0.9 -0.5,0 -0.8,0.4 -0.8,0.9 v 1 h 1.5 z"
   id="path106"
   inkscape:connector-curvature="0" />
	<path
   d="m 16.3,93.4 v -0.8 h 0.4 v 0.8 z m 0,5.8 V 94 h 0.4 v 5.2 z"
   id="path108"
   inkscape:connector-curvature="0" />
	<path
   d="m 19.9,99.2 v -4.1 c 0,-0.4 -0.1,-0.8 -0.6,-0.8 -0.4,0 -0.7,0.2 -0.9,0.7 v 4.3 H 18 V 94 h 0.4 v 0.5 c 0.3,-0.5 0.8,-0.6 1,-0.6 0.4,0 1,0.2 1,1.1 v 4.2 z"
   id="path110"
   inkscape:connector-curvature="0" />
	<path
   d="M 21.5,91.9 H 22 v 2.6 c 0.3,-0.4 0.7,-0.5 1,-0.5 0.9,0 1,0.8 1,1.3 V 98 c 0,0.5 -0.3,1.2 -1.1,1.2 -0.1,0 -0.6,0 -0.8,-0.5 v 0.4 h -0.5 v -7.2 z m 0.5,5.9 c 0,0.9 0.6,1 0.8,1 0.5,0 0.7,-0.4 0.7,-1 v -2.6 c 0,-0.2 0,-0.9 -0.7,-0.9 -0.5,0 -0.8,0.4 -0.8,0.9 z"
   id="path112"
   inkscape:connector-curvature="0" />
	<path
   d="m 27.4,98.1 c 0,0.6 -0.3,1.2 -1.2,1.2 -0.7,0 -1.2,-0.4 -1.2,-1.2 v -2.8 c 0,-0.6 0.3,-1.2 1.2,-1.2 0.8,0 1.2,0.4 1.2,1.4 v 1.3 h -2 V 98 c 0,0.3 0.1,0.9 0.7,0.9 0.7,0 0.8,-0.6 0.8,-1.1 v -0.4 h 0.4 v 0.7 z m -0.5,-2.9 c 0,-0.6 -0.3,-0.9 -0.7,-0.9 -0.5,0 -0.8,0.4 -0.8,0.9 v 1 h 1.5 z"
   id="path114"
   inkscape:connector-curvature="0" />
	<path
   d="m 28.9,94 v 0.9 C 29.1,94.3 29.6,94 30,93.8 v 0.6 c -0.1,0 -0.3,0.1 -0.4,0.2 -0.4,0.2 -0.6,0.8 -0.7,0.9 v 3.7 H 28.5 V 94 Z"
   id="path116"
   inkscape:connector-curvature="0" />
	<path
   d="m 33.1,99.6 c 0,0.9 -0.6,1.3 -1.3,1.3 -0.4,0 -0.9,-0.1 -1,-0.5 -0.1,-0.1 -0.1,-0.3 -0.1,-0.6 h 0.4 c 0,0 0,0.2 0.1,0.4 0.2,0.3 0.6,0.3 0.6,0.3 0.1,0 0.8,-0.1 0.8,-0.8 v -0.9 c -0.1,0.1 -0.4,0.5 -0.9,0.5 -0.7,0 -1,-0.6 -1,-1.2 v -2.9 c 0,-0.9 0.5,-1.2 1.1,-1.2 0.5,0 0.8,0.3 0.9,0.5 V 94 h 0.4 z m -0.5,-4.5 c -0.1,-0.4 -0.4,-0.7 -0.8,-0.7 -0.6,0 -0.7,0.5 -0.7,0.9 v 2.6 c 0,0.7 0.3,0.9 0.7,0.9 0.3,0 0.7,-0.2 0.8,-0.8 z"
   id="path118"
   inkscape:connector-curvature="0" />
	<path
   d="m 39.9,99.2 c 0,-0.5 0,-5.1 0,-6.8 l -1.3,6.8 h -0.5 l -1.3,-6.8 v 6.8 h -0.5 c 0,-0.5 0.1,-7.3 0.1,-7.3 h 0.7 l 1.2,6.3 1.2,-6.3 h 0.7 c 0,0.8 0.1,7.3 0.1,7.3 z"
   id="path120"
   inkscape:connector-curvature="0" />
	<path
   d="m 43.9,98.1 c 0,0.6 -0.3,1.2 -1.2,1.2 -0.7,0 -1.2,-0.4 -1.2,-1.2 v -2.8 c 0,-0.6 0.3,-1.2 1.2,-1.2 0.8,0 1.2,0.4 1.2,1.4 v 1.3 h -2 V 98 c 0,0.3 0.1,0.9 0.7,0.9 0.7,0 0.8,-0.6 0.8,-1.1 v -0.4 h 0.4 v 0.7 z m -0.4,-2.9 c 0,-0.6 -0.3,-0.9 -0.7,-0.9 -0.5,0 -0.8,0.4 -0.8,0.9 v 1 h 1.5 z"
   id="path122"
   inkscape:connector-curvature="0" />
	<path
   d="m 46.9,99.2 v -0.6 c -0.1,0.2 -0.4,0.6 -1,0.6 -0.5,0 -1,-0.3 -1,-1.2 v -2.8 c 0,-0.9 0.5,-1.3 1.1,-1.3 0.6,0 0.8,0.4 0.9,0.5 v -2.6 h 0.4 v 7.3 h -0.4 z m 0,-3.9 c -0.1,-0.5 -0.3,-0.9 -0.8,-0.9 -0.5,0 -0.7,0.4 -0.7,0.8 V 98 c 0,0.3 0.1,0.9 0.7,0.9 0.4,0 0.7,-0.4 0.8,-0.8 z"
   id="path124"
   inkscape:connector-curvature="0" />
	<path
   d="M 48.5,93.4 V 92.6 H 49 v 0.8 z m 0,5.8 V 94 H 49 v 5.2 z"
   id="path126"
   inkscape:connector-curvature="0" />
	<path
   d="m 52.6,99.2 c -0.4,0 -0.6,-0.1 -0.7,-0.4 -0.2,0.1 -0.5,0.4 -1,0.4 -0.7,0 -1,-0.6 -1,-1.2 0,-1.5 1.4,-1.6 2,-2.2 v -0.7 c 0,-0.4 -0.1,-0.7 -0.6,-0.7 -0.5,0 -0.7,0.3 -0.7,1 v 0.3 h -0.4 v -0.3 c 0,-1 0.4,-1.4 1.2,-1.4 0.7,0 1.1,0.4 1.1,1.1 v 3.6 c 0,0.2 0.1,0.2 0.3,0.2 z M 52,96.3 c -0.3,0.2 -0.6,0.3 -0.9,0.5 -0.5,0.3 -0.7,0.6 -0.7,1.2 0,0.2 0,0.8 0.7,0.8 0.4,0 0.7,-0.2 0.9,-0.5 z"
   id="path128"
   inkscape:connector-curvature="0" />
	<path
   d="m 56.9,92.3 v 6.9 h -0.5 v -6.9 h -1.3 v -0.5 h 3.1 v 0.5 z"
   id="path130"
   inkscape:connector-curvature="0" />
	<path
   d="m 60.6,98.1 c 0,0.6 -0.3,1.2 -1.2,1.2 -0.7,0 -1.2,-0.4 -1.2,-1.2 v -2.8 c 0,-0.6 0.3,-1.2 1.2,-1.2 0.8,0 1.2,0.4 1.2,1.4 v 1.3 h -2 V 98 c 0,0.3 0.1,0.9 0.7,0.9 0.7,0 0.8,-0.6 0.8,-1.1 v -0.4 h 0.4 v 0.7 z m -0.4,-2.9 c 0,-0.6 -0.3,-0.9 -0.7,-0.9 -0.5,0 -0.8,0.4 -0.8,0.9 v 1 h 1.5 z"
   id="path132"
   inkscape:connector-curvature="0" />
	<path
   d="m 64.1,97.9 c 0,0.8 -0.3,1.4 -1.3,1.4 -0.9,0 -1.2,-0.7 -1.2,-1.3 v -2.6 c 0,-1 0.5,-1.3 1.2,-1.3 0.8,0 1.2,0.5 1.2,1.4 V 96 h -0.4 v -0.4 c 0,-0.5 -0.1,-1.1 -0.8,-1.1 -0.7,0 -0.8,0.6 -0.8,1 v 2.3 c 0,0.5 0,1.2 0.8,1.2 0.6,0 0.7,-0.5 0.7,-0.9 V 97.3 H 64 v 0.6 z"
   id="path134"
   inkscape:connector-curvature="0" />
	<path
   d="m 67,99.2 v -3.9 c 0,-0.5 -0.1,-0.9 -0.7,-0.9 -0.5,0 -0.8,0.4 -0.8,0.7 v 4.2 H 65.1 V 92 h 0.4 v 2.5 c 0.1,-0.1 0.4,-0.5 0.9,-0.5 0.4,0 1,0.2 1,1.1 v 4.2 H 67 Z"
   id="path136"
   inkscape:connector-curvature="0" />
	<path
   d="m 70.6,99.2 v -4.1 c 0,-0.4 -0.1,-0.8 -0.6,-0.8 -0.4,0 -0.7,0.2 -0.9,0.7 v 4.3 H 68.7 V 94 h 0.4 v 0.5 c 0.3,-0.5 0.8,-0.6 1,-0.6 0.4,0 1,0.2 1,1.1 v 4.2 z"
   id="path138"
   inkscape:connector-curvature="0" />
	<path
   d="m 74.6,97.9 c 0,1 -0.6,1.4 -1.2,1.4 -0.7,0 -1.2,-0.4 -1.2,-1.1 v -2.9 c 0,-0.6 0.3,-1.3 1.3,-1.3 0.8,0 1.2,0.5 1.2,1.3 v 2.6 z m -0.5,-2.6 c 0,-0.4 -0.1,-0.9 -0.7,-0.9 -0.7,0 -0.8,0.5 -0.8,1 V 98 c 0,0.6 0.3,0.8 0.8,0.8 0.7,0 0.8,-0.6 0.8,-0.9 v -2.6 z"
   id="path140"
   inkscape:connector-curvature="0" />
	<path
   d="M 75.6,99.2 V 91.9 H 76 v 7.3 z"
   id="path142"
   inkscape:connector-curvature="0" />
	<path
   d="m 79.7,97.9 c 0,1 -0.6,1.4 -1.2,1.4 -0.7,0 -1.2,-0.4 -1.2,-1.1 v -2.9 c 0,-0.6 0.3,-1.3 1.3,-1.3 0.8,0 1.2,0.5 1.2,1.3 v 2.6 z m -0.5,-2.6 c 0,-0.4 -0.1,-0.9 -0.7,-0.9 -0.7,0 -0.8,0.5 -0.8,1 V 98 c 0,0.6 0.3,0.8 0.8,0.8 0.7,0 0.8,-0.6 0.8,-0.9 v -2.6 z"
   id="path144"
   inkscape:connector-curvature="0" />
	<path
   d="m 83.2,99.6 c 0,0.9 -0.6,1.3 -1.3,1.3 -0.4,0 -0.9,-0.1 -1,-0.5 -0.1,-0.1 -0.1,-0.3 -0.1,-0.6 h 0.4 c 0,0 0,0.2 0.1,0.4 0.2,0.3 0.6,0.3 0.6,0.3 0.1,0 0.8,-0.1 0.8,-0.8 v -0.9 c -0.1,0.1 -0.4,0.5 -0.9,0.5 -0.8,0 -1,-0.6 -1,-1.2 v -2.9 c 0,-0.9 0.5,-1.2 1.1,-1.2 0.5,0 0.8,0.3 0.9,0.5 V 94 h 0.4 z m -0.4,-4.5 c -0.1,-0.4 -0.4,-0.7 -0.8,-0.7 -0.6,0 -0.7,0.5 -0.7,0.9 v 2.6 c 0,0.7 0.3,0.9 0.7,0.9 0.3,0 0.7,-0.2 0.8,-0.8 z"
   id="path146"
   inkscape:connector-curvature="0" />
	<path
   d="m 84.4,93.4 v -0.8 h 0.4 v 0.8 z m 0,5.8 V 94 h 0.4 v 5.2 z"
   id="path148"
   inkscape:connector-curvature="0" />
	<path
   d="m 88.3,98.1 c 0,0.6 -0.3,1.2 -1.2,1.2 -0.7,0 -1.2,-0.4 -1.2,-1.2 v -2.8 c 0,-0.6 0.3,-1.2 1.2,-1.2 0.8,0 1.2,0.4 1.2,1.4 v 1.3 h -2 V 98 c 0,0.3 0.1,0.9 0.7,0.9 0.7,0 0.8,-0.6 0.8,-1.1 v -0.4 h 0.4 v 0.7 z m -0.4,-2.9 c 0,-0.6 -0.3,-0.9 -0.7,-0.9 -0.5,0 -0.8,0.4 -0.8,0.9 v 1 h 1.5 z"
   id="path150"
   inkscape:connector-curvature="0" />
	<path
   d="m 89.6,97.4 v 0.5 c 0,0.3 0,1 0.8,1 0.4,0 0.8,-0.2 0.8,-0.9 0,-0.5 -0.1,-0.7 -0.9,-1.3 -0.6,-0.5 -0.9,-0.8 -0.9,-1.6 0,-0.4 0.1,-1.1 1.1,-1.1 1.1,0 1.1,0.8 1.1,1.2 v 0.4 h -0.4 v -0.4 c 0,-0.6 -0.2,-0.8 -0.6,-0.8 -0.6,0 -0.7,0.4 -0.7,0.7 0,0.5 0,0.6 1,1.4 0.5,0.4 0.8,0.7 0.8,1.4 0,0.8 -0.3,1.3 -1.2,1.3 -1.1,0 -1.2,-0.6 -1.2,-1.5 v -0.4 h 0.3 z"
   id="path152"
   inkscape:connector-curvature="0" />
	<path
   d="m 97.2,99.2 v -0.6 c -0.1,0.2 -0.5,0.7 -1.2,0.7 -0.4,0 -0.9,-0.2 -1.1,-0.6 -0.2,-0.4 -0.3,-0.7 -0.3,-1.4 v -3.9 c 0,-1 0.4,-1.6 1.5,-1.6 1.1,0 1.4,0.7 1.4,1.3 v 1.1 H 97 v -0.9 c 0,-0.6 -0.1,-1.1 -1,-1.1 -0.8,0 -1,0.6 -1,1.2 v 3.8 c 0,0.6 0,0.9 0.1,1.2 0.1,0.2 0.3,0.5 0.8,0.5 0.7,0 1,-0.8 1,-1.2 V 96.4 H 96 V 96 h 1.6 v 3.4 h -0.4 z"
   id="path154"
   inkscape:connector-curvature="0" />
	<path
   d="m 102.7,99.2 v -4 c 0,-0.5 -0.1,-0.9 -0.7,-0.9 -0.4,0 -0.7,0.3 -0.9,0.6 v 4.2 h -0.4 v -4.2 c 0,-0.5 -0.2,-0.7 -0.7,-0.7 -0.5,0 -0.8,0.4 -0.8,0.6 v 4.3 H 98.8 V 94 h 0.4 v 0.4 c 0.1,-0.2 0.5,-0.5 1,-0.5 0.6,0 0.8,0.4 0.9,0.6 0.1,-0.2 0.4,-0.6 1.1,-0.6 0.5,0 1,0.3 1,1.2 v 4.2 h -0.5 z"
   id="path156"
   inkscape:connector-curvature="0" />
	<path
   d="m 104.3,91.9 h 0.4 v 2.6 c 0.3,-0.4 0.7,-0.5 1,-0.5 0.9,0 1,0.8 1,1.3 V 98 c 0,0.5 -0.3,1.2 -1.1,1.2 -0.1,0 -0.6,0 -0.8,-0.5 v 0.4 h -0.5 z m 0.5,5.9 c 0,0.9 0.6,1 0.8,1 0.5,0 0.7,-0.4 0.7,-1 v -2.6 c 0,-0.2 0,-0.9 -0.7,-0.9 -0.5,0 -0.8,0.4 -0.8,0.9 z"
   id="path158"
   inkscape:connector-curvature="0" />
	<path
   d="m 110.2,99.2 v -3.4 h -1.8 v 3.4 h -0.5 v -7 h 0.5 v 3.1 h 1.8 v -3.1 h 0.5 v 7 z"
   id="path160"
   inkscape:connector-curvature="0" />
</g>
</svg>